<svg width="79" height="80" viewBox="0 0 79 80" fill="none" xmlns="http://www.w3.org/2000/svg">
<g id="Icon">
<path id="Circle 2" opacity="0.3" fill-rule="evenodd" clip-rule="evenodd" d="M0.453613 40.0535V56.2189C0.453613 68.9214 10.751 79.2189 23.4536 79.2189H39.619H55.7843C68.4869 79.2189 78.7843 68.9215 78.7843 56.2189V40.0535V23.8882C78.7843 11.1856 68.4869 0.888191 55.7843 0.888191H39.619H23.4536C10.7511 0.888191 0.453613 11.1856 0.453613 23.8882V40.0535Z" fill="#FF9066"/>
<g id="icon">
<path id="Path 107" opacity="0.78" fill-rule="evenodd" clip-rule="evenodd" d="M37.8428 31.8298C37.8628 31.5693 38.0801 31.3682 38.3413 31.3682H39.1665C39.4234 31.3682 39.6385 31.5628 39.664 31.8184L40.4893 40.0716L46.3298 43.409C46.4856 43.498 46.5817 43.6637 46.5817 43.8431V44.639C46.5817 44.9687 46.2682 45.2082 45.9502 45.1214L37.4066 42.7914C37.1753 42.7283 37.0213 42.5097 37.0397 42.2706L37.8428 31.8298Z" fill="#FF9066"/>
<path id="Combined Shape" opacity="0.901274" fill-rule="evenodd" clip-rule="evenodd" d="M29.9228 20.2179C29.6587 19.9031 29.1488 20.0236 29.0534 20.4233L26.8029 29.8585C26.7252 30.1841 26.9833 30.4926 27.3175 30.4737L37.0236 29.9237C37.4345 29.9004 37.6429 29.4184 37.3784 29.1031L34.8306 26.0668C36.3513 25.5472 37.9638 25.2758 39.6195 25.2758C47.7909 25.2758 54.4153 31.9001 54.4153 40.0716C54.4153 48.2431 47.7909 54.8674 39.6195 54.8674C31.448 54.8674 24.8237 48.2431 24.8237 40.0716C24.8237 38.6999 25.0094 37.3563 25.3716 36.065L22.0196 35.1247C21.5783 36.6981 21.3423 38.3573 21.3423 40.0716C21.3423 50.1658 29.5253 58.3488 39.6195 58.3488C49.7136 58.3488 57.8966 50.1658 57.8966 40.0716C57.8966 29.9774 49.7136 21.7945 39.6195 21.7945C37.0805 21.7945 34.6625 22.3122 32.4652 23.2478L29.9228 20.2179Z" fill="#FF9066"/>
</g>
</g>
</svg>
