<svg width="79" height="80" viewBox="0 0 79 80" fill="none" xmlns="http://www.w3.org/2000/svg">
<g id="Icon">
<path id="Circle 2" opacity="0.21" fill-rule="evenodd" clip-rule="evenodd" d="M0.244141 40.0535V56.2189C0.244141 68.9214 10.5416 79.2189 23.2441 79.2189H39.4095H55.5748C68.2774 79.2189 78.5749 68.9215 78.5749 56.2189V40.0535V23.8882C78.5749 11.1856 68.2774 0.888191 55.5749 0.888191H39.4095H23.2441C10.5416 0.888191 0.244141 11.1856 0.244141 23.8882V40.0535Z" fill="#4AD991"/>
<g id="icon">
<path id="Path 95" d="M25.1939 54.2691H55.6559C56.7774 54.2691 57.6867 55.1784 57.6867 56.2999C57.6867 57.4215 56.7774 58.3307 55.6559 58.3307H23.1631C22.0415 58.3307 21.1323 57.4215 21.1323 56.2999V23.8072C21.1323 22.6856 22.0415 21.7764 23.1631 21.7764C24.2847 21.7764 25.1939 22.6856 25.1939 23.8072V54.2691Z" fill="#4AD991"/>
<path id="Path 97" opacity="0.5" d="M32.7677 45.5041C32.0006 46.3223 30.7155 46.3638 29.8972 45.5967C29.079 44.8296 29.0375 43.5444 29.8046 42.7262L37.4201 34.603C38.162 33.8117 39.3948 33.7431 40.2199 34.4472L46.2305 39.5762L54.0618 29.6566C54.7568 28.7763 56.0338 28.626 56.9141 29.321C57.7944 30.016 57.9446 31.293 57.2497 32.1733L48.1111 43.7489C47.3973 44.653 46.0752 44.7831 45.1989 44.0353L39.0577 38.7948L32.7677 45.5041Z" fill="#4AD991"/>
</g>
</g>
</svg>
