<svg width="79" height="80" viewBox="0 0 79 80" fill="none" xmlns="http://www.w3.org/2000/svg">
<g id="Icon">
<path id="Circle 2" opacity="0.21" fill-rule="evenodd" clip-rule="evenodd" d="M0.034668 40.0535V56.2189C0.034668 68.9214 10.3321 79.2189 23.0347 79.2189H39.2H55.3654C68.0679 79.2189 78.3654 68.9215 78.3654 56.2189V40.0535V23.8882C78.3654 11.1856 68.0679 0.888191 55.3654 0.888191H39.2H23.0347C10.3321 0.888191 0.034668 11.1856 0.034668 23.8882V40.0535Z" fill="#FEC53D"/>
<g id="icon">
<path id="Combined Shape" fill-rule="evenodd" clip-rule="evenodd" d="M19.6172 32.6336L36.4589 42.3572C36.6403 42.4619 36.8304 42.5375 37.024 42.5855V61.4439L20.8183 51.8534C20.0738 51.4128 19.6172 50.6119 19.6172 49.7468V32.6336ZM58.7828 32.3751V49.7468C58.7828 50.6119 58.3262 51.4128 57.5817 51.8534L41.376 61.4439V42.4203C41.4155 42.4006 41.4546 42.3795 41.4934 42.3572L58.7828 32.3751Z" fill="#FEC53D"/>
<path id="Path" opacity="0.499209" fill-rule="evenodd" clip-rule="evenodd" d="M20.1465 27.9141C20.3522 27.6543 20.6119 27.4348 20.9146 27.2735L38.0494 18.1471C38.7687 17.764 39.6315 17.764 40.3509 18.1471L57.4857 27.2735C57.7191 27.3978 57.9268 27.5568 58.104 27.7421L39.3175 38.5885C39.194 38.6598 39.0801 38.7414 38.9763 38.8316C38.8725 38.7414 38.7586 38.6598 38.6351 38.5885L20.1465 27.9141Z" fill="#FEC53D"/>
</g>
</g>
</svg>
