<svg width="80" height="80" viewBox="0 0 80 80" fill="none" xmlns="http://www.w3.org/2000/svg">
<g id="Icon">
<path id="Circle 2" opacity="0.21" fill-rule="evenodd" clip-rule="evenodd" d="M0.825195 40.0535V56.2189C0.825195 68.9214 11.1226 79.2189 23.8252 79.2189H39.9906H56.1559C68.8585 79.2189 79.1559 68.9215 79.1559 56.2189V40.0535V23.8882C79.1559 11.1856 68.8585 0.888191 56.1559 0.888191H39.9906H23.8252C11.1226 0.888191 0.825195 11.1856 0.825195 23.8882V40.0535Z" fill="#8280FF"/>
<g id="Group">
<path id="Combined Shape" opacity="0.587821" fill-rule="evenodd" clip-rule="evenodd" d="M27.8057 31.3501C27.8057 35.1955 30.923 38.3128 34.7684 38.3128C38.6138 38.3128 41.7311 35.1955 41.7311 31.3501C41.7311 27.5047 38.6138 24.3874 34.7684 24.3874C30.923 24.3874 27.8057 27.5047 27.8057 31.3501ZM45.2123 38.3128C45.2123 41.1969 47.5503 43.5349 50.4343 43.5349C53.3184 43.5349 55.6564 41.1969 55.6564 38.3128C55.6564 35.4288 53.3184 33.0908 50.4343 33.0908C47.5503 33.0908 45.2123 35.4288 45.2123 38.3128Z" fill="#8280FF"/>
<path id="Combined Shape_2" fill-rule="evenodd" clip-rule="evenodd" d="M34.7397 41.7942C26.5212 41.7942 19.7784 46.018 19.1037 54.3257C19.0669 54.7783 19.9323 55.7196 20.3689 55.7196H49.1236C50.4312 55.7196 50.4515 54.6674 50.4312 54.3271C49.9211 45.7859 43.0739 41.7942 34.7397 41.7942ZM59.9318 55.7196H53.2196C53.2196 51.8015 51.925 48.1857 49.7403 45.2766C55.6701 45.3413 60.5118 48.3393 60.8762 54.6752C60.8909 54.9304 60.8762 55.7196 59.9318 55.7196Z" fill="#8280FF"/>
</g>
</g>
</svg>
