<svg width="215" height="34" viewBox="0 0 215 34" fill="none" xmlns="http://www.w3.org/2000/svg">
<g id="Group 33912">
<g id="Group">
<path id="Vector" d="M3.12 24.81C2.24 24.81 1.5 24.51 0.9 23.91C0.3 23.29 0 22.55 0 21.69V9.19005H3.12V21.69H6.24V9.19005H9.36V21.69H12.48V9.19005H15.6V21.69C15.6 22.57 15.29 23.31 14.67 23.91C14.05 24.51 13.32 24.81 12.47 24.81H3.12Z" fill="#0062FF"/>
<path id="Vector_2" d="M20.7998 24.8101V12.3101C20.7998 11.4501 21.0998 10.7201 21.6998 10.1101C22.2998 9.50005 23.0598 9.18005 23.9198 9.18005H30.1698C31.0298 9.18005 31.7598 9.49005 32.3698 10.1101C32.9898 10.7301 33.2998 11.4601 33.2998 12.3101V24.8101H30.1798V18.5601H23.9298V24.8101H20.8098H20.7998ZM30.1798 15.4301V12.3101H23.9298V15.4301H30.1798Z" fill="#0062FF"/>
<path id="Vector_3" d="M38.48 24.81V9.19005H47.86C48.72 9.19005 49.45 9.50005 50.06 10.12C50.68 10.74 50.99 11.47 50.99 12.32V15.44C50.99 15.88 50.83 16.25 50.53 16.56C50.22 16.85 49.85 17 49.43 17C49.85 17 50.22 17.16 50.53 17.46C50.84 17.77 50.99 18.14 50.99 18.56V24.81H47.87V18.56H41.62V24.81H38.5H38.48ZM47.86 15.43V12.31H41.61V15.43H47.86Z" fill="#0062FF"/>
<path id="Vector_4" d="M59.2802 24.8101C58.4002 24.8101 57.6602 24.5101 57.0602 23.9101C56.4602 23.2901 56.1602 22.5501 56.1602 21.6901V12.3101C56.1602 11.4501 56.4602 10.7201 57.0602 10.1101C57.6602 9.50005 58.4202 9.18005 59.2802 9.18005H68.6602V12.3001H59.2802V15.4201H68.6602V18.5401H59.2802V21.6601H68.6602V24.7801H59.2802V24.8101Z" fill="#0062FF"/>
<path id="Vector_5" d="M73.8301 24.81V9.19005H76.9501V15.44H83.2001V9.19005H86.3201V24.81H83.2001V18.56H76.9501V24.81H73.8301Z" fill="white"/>
<path id="Vector_6" d="M94.6298 24.8101C93.7498 24.8101 93.0098 24.5101 92.4098 23.9101C91.8098 23.2901 91.5098 22.5501 91.5098 21.6901V12.3101C91.5098 11.4501 91.8098 10.7201 92.4098 10.1101C93.0098 9.50005 93.7698 9.18005 94.6298 9.18005H100.88C101.74 9.18005 102.47 9.49005 103.08 10.1101C103.7 10.7301 104.01 11.4601 104.01 12.3101V21.6901C104.01 22.5701 103.7 23.3101 103.08 23.9101C102.46 24.5101 101.73 24.8101 100.88 24.8101H94.6298ZM100.88 21.6901V12.3101H94.6298V21.6901H100.88Z" fill="white"/>
<path id="Vector_7" d="M112.3 24.81C111.42 24.81 110.68 24.51 110.08 23.91C109.48 23.29 109.18 22.55 109.18 21.69V9.19005H112.3V21.69H118.55V9.19005H121.67V24.81H112.29H112.3Z" fill="white"/>
<path id="Vector_8" d="M126.86 24.8101V21.6901H136.24V18.5701H129.99C129.11 18.5701 128.37 18.2701 127.77 17.6701C127.17 17.0501 126.87 16.3101 126.87 15.4501V12.3301C126.87 11.4701 127.17 10.7401 127.77 10.1301C128.37 9.52006 129.13 9.20006 129.99 9.20006H139.37V12.3201H129.99V15.4401H136.24C137.1 15.4401 137.83 15.7501 138.44 16.3701C139.06 16.9901 139.37 17.7201 139.37 18.5701V21.6901C139.37 22.5701 139.06 23.3101 138.44 23.9101C137.82 24.5101 137.09 24.8101 136.24 24.8101H126.86Z" fill="white"/>
<path id="Vector_9" d="M147.66 24.8101C146.78 24.8101 146.04 24.5101 145.44 23.9101C144.84 23.2901 144.54 22.5501 144.54 21.6901V12.3101C144.54 11.4501 144.84 10.7201 145.44 10.1101C146.04 9.50005 146.8 9.18005 147.66 9.18005H157.04V12.3001H147.66V15.4201H157.04V18.5401H147.66V21.6601H157.04V24.7801H147.66V24.8101Z" fill="white"/>
</g>
<g id="Group_2">
<path id="Vector_10" d="M186.92 33.13L166.54 28.05V7.65999L186.92 12.75V33.13Z" fill="#0062FF"/>
<path id="Vector_11" d="M188.28 33.13L208.67 28.05V7.65999L188.28 12.75V33.13Z" fill="#0062FF"/>
<path id="Vector_12" d="M186.92 11.39L166.54 6.31L161.1 0.869995L181.49 5.95L186.92 11.39Z" fill="#0062FF"/>
<path id="Vector_13" d="M188.28 11.39L208.67 6.31L214.1 0.869995L193.72 5.95L188.28 11.39Z" fill="#0062FF"/>
</g>
</g>
</svg>
